<?xml version="1.0" encoding="UTF-8"?>
<svg id="Layer_2" data-name="Layer 2" xmlns="http://www.w3.org/2000/svg" viewBox="0 0 170.29 29.4">
  <defs>
    <style>
      .cls-1 {
        fill: #1d86ef;
      }

      .cls-2 {
        fill: #3d81e2;
      }

      .cls-3 {
        fill: #3c3ce5;
      }
    </style>
  </defs>
  <g id="Layer_1-2" data-name="Layer 1">
    <g id="logo-blue-black-bg">
      <g>
        <path class="cls-2" d="M21.41,15.13l5.62,10.56c.45,.85-.55,1.74-1.34,1.18L9.65,15.45c-.51-.37-.51-1.13,0-1.49L25.69,2.53c.79-.56,1.79,.32,1.34,1.18l-5.62,10.56c-.14,.27-.14,.59,0,.86Z"/>
        <path class="cls-3" d="M6.83,14.19L.14,1.61C-.41,.59,.79-.46,1.73,.21L20.85,13.81c.61,.44,.61,1.34,0,1.78L1.73,29.19c-.94,.67-2.14-.39-1.6-1.4L6.83,15.21c.17-.32,.17-.71,0-1.03Z"/>
      </g>
      <g>
        <path class="cls-1" d="M44.58,7.79c5.15,0,8.68,3.16,8.68,8.4v1.44h-13.27c.07,2.5,1.54,4.46,5.11,4.46,2.3,0,3.91-.96,4.36-2.78h4.42c-.48,2.54-3.02,6.38-8.78,6.38-6.41,0-9.3-4.25-9.3-9.16,0-5.49,3.64-8.75,8.78-8.75Zm4.49,7.17c0-1.89-1.3-3.53-4.49-3.53s-4.6,1.65-4.6,3.53h9.09Z"/>
        <path class="cls-1" d="M68.66,21.51v3.84l-7.96,.34c-1.75,.07-2.68-.93-2.68-2.68V11.97h-3.98v-3.84h3.98v-3.7l4.42-1.37v5.08h5.52v3.84h-5.52v9.88l6.21-.34Z"/>
        <path class="cls-1" d="M89.13,15.58v9.78h-4.39v-9.12c0-3.33-1.13-4.6-3.88-4.6-3.22,0-5.42,2.09-5.42,6.86v6.86h-4.42V.14h4.42V10.57l-.79,2.64h1.13c.69-3.09,2.85-5.42,6.55-5.42,4.19,0,6.79,2.68,6.79,7.79Z"/>
        <path class="cls-1" d="M100.21,7.79c4.18,0,8.44,2.3,8.78,7.24h-4.42c-.34-2.23-2.02-3.4-4.36-3.4-3.16,0-4.73,2.13-4.73,5.11s1.58,5.11,4.73,5.11c2.33,0,4.01-1.17,4.36-3.4h4.42c-.34,4.94-4.6,7.24-8.78,7.24-5.52,0-9.16-3.5-9.16-8.95s3.64-8.95,9.16-8.95Z"/>
        <path class="cls-1" d="M119.9,7.79c5.42,0,9.43,3.33,9.43,8.95s-4.01,8.95-9.43,8.95-9.47-3.33-9.47-8.95,4.01-8.95,9.47-8.95Zm0,14.06c3.16,0,5.04-1.96,5.04-5.11s-1.89-5.11-5.04-5.11-5.04,1.96-5.04,5.11,1.89,5.11,5.04,5.11Z"/>
        <path class="cls-1" d="M145.76,25.35v-1.65l.82-2.61h-1.17c-.82,2.44-2.71,4.6-6.86,4.6-4.97,0-7.75-3.98-7.75-8.95s2.78-8.95,7.75-8.95c4.15,0,6.04,2.16,6.86,4.63h1.17l-.82-2.64V.14h4.42V25.35h-4.42Zm-5.32-13.72c-3.19,0-5.21,1.54-5.21,5.11s2.02,5.11,5.21,5.11,5.32-1.54,5.32-5.11-2.13-5.11-5.32-5.11Z"/>
        <path class="cls-1" d="M160.99,7.79c5.15,0,8.68,3.16,8.68,8.4v1.44h-13.28c.07,2.5,1.54,4.46,5.11,4.46,2.3,0,3.91-.96,4.36-2.78h4.43c-.48,2.54-3.02,6.38-8.78,6.38-6.42,0-9.3-4.25-9.3-9.16,0-5.49,3.64-8.75,8.78-8.75Zm4.49,7.17c0-1.89-1.3-3.53-4.49-3.53s-4.6,1.65-4.6,3.53h9.09Z"/>
      </g>
    </g>
  </g>
</svg>