<?xml version="1.0" encoding="UTF-8" standalone="no"?>
<!DOCTYPE svg PUBLIC "-//W3C//DTD SVG 1.1//EN" "http://www.w3.org/Graphics/SVG/1.1/DTD/svg11.dtd">
<svg width="100%" height="100%" viewBox="0 0 66 66" version="1.1" xmlns="http://www.w3.org/2000/svg" xmlns:xlink="http://www.w3.org/1999/xlink" xml:space="preserve" xmlns:serif="http://www.serif.com/" style="fill-rule:evenodd;clip-rule:evenodd;stroke-linecap:round;stroke-miterlimit:8.96341;">
    <g transform="matrix(1,0,0,1,-800.176,-706.555)">
        <g transform="matrix(0.825028,0,0,1.41518,114.818,329.809)">
            <g transform="matrix(0.409982,0,0,0.225299,-246.643,144.558)">
                <path d="M2738.59,559.662C2729.44,557.945 2720.08,557.945 2710.93,559.662L2711.97,593.86C2709.51,594.583 2707.12,595.513 2704.8,596.641L2684.95,569.734C2676.91,574.68 2669.74,581.086 2663.77,588.663L2685.2,614.151C2683.76,616.386 2682.48,618.74 2681.39,621.191L2649.94,614.166C2646.76,623.461 2645.14,633.276 2645.14,643.167L2676.94,648.018C2677.18,650.72 2677.63,653.397 2678.27,656.025L2649.94,672.168C2653.12,681.462 2657.8,690.094 2663.77,697.671L2691.06,679.616C2692.88,681.52 2694.83,683.267 2696.91,684.841L2684.95,716.6C2692.99,721.545 2701.79,724.954 2710.93,726.672L2720.95,694.158C2723.49,694.374 2726.04,694.374 2728.58,694.158L2738.59,726.672C2747.74,724.954 2756.53,721.545 2764.57,716.6L2752.62,684.841C2754.69,683.267 2756.65,681.52 2758.47,679.616L2785.76,697.671C2791.73,690.094 2796.41,681.462 2799.59,672.168L2771.26,656.025C2771.9,653.397 2772.34,650.72 2772.58,648.018L2804.39,643.167C2804.39,633.276 2802.76,623.461 2799.59,614.166L2768.14,621.191C2767.04,618.74 2765.77,616.386 2764.32,614.151L2785.76,588.663C2779.79,581.086 2772.62,574.68 2764.57,569.734L2744.73,596.641C2742.41,595.513 2740.01,594.583 2737.55,593.86L2738.59,559.662ZM2724.76,611.397C2741.23,611.397 2754.6,625.633 2754.6,643.167C2754.6,660.701 2741.23,674.937 2724.76,674.937C2708.3,674.937 2694.93,660.701 2694.93,643.167C2694.93,625.633 2708.3,611.397 2724.76,611.397Z" style="fill:none;stroke:rgb(0,255,153);stroke-width:3.96px;"/>
            </g>
        </g>
    </g>
</svg>
