<?xml version="1.0" encoding="UTF-8" standalone="no"?>
<!DOCTYPE svg PUBLIC "-//W3C//DTD SVG 1.1//EN" "http://www.w3.org/Graphics/SVG/1.1/DTD/svg11.dtd">
<svg width="100%" height="100%" viewBox="0 0 114 19" version="1.1" xmlns="http://www.w3.org/2000/svg" xmlns:xlink="http://www.w3.org/1999/xlink" xml:space="preserve" xmlns:serif="http://www.serif.com/" style="fill-rule:evenodd;clip-rule:evenodd;stroke-linejoin:round;stroke-miterlimit:2;">
    <g transform="matrix(1,0,0,1,-145.706,-75.5196)">
        <g transform="matrix(0.254343,0,0,0.276963,135.507,35.9855)">
            <g transform="matrix(0.697323,0,0,0.697323,-8.44708,45.0707)">
                <g transform="matrix(3.66098,0,0,3.64324,-1497.2,-1911.06)">
                    <text x="452.519px" y="589.132px" style="font-family:'Avenir-Heavy', 'Avenir', sans-serif;font-weight:900;font-size:36px;fill:rgb(11,32,39);">THCODE</text>
                </g>
                <g transform="matrix(0.696634,0,0,0.7874,-724.855,-531.222)">
                    <g transform="matrix(1,0,0,0.781905,0,186.627)">
                        <rect x="1140.45" y="855.714" width="108.993" height="24.093" style="fill:rgb(113,90,255);"/>
                    </g>
                    <g transform="matrix(1,0,0,0.781905,5.54223e-13,237.081)">
                        <rect x="1140.45" y="855.714" width="108.993" height="24.093" style="fill:rgb(113,90,255);"/>
                    </g>
                    <g transform="matrix(1,0,0,0.781905,8.95284e-13,285.568)">
                        <rect x="1140.45" y="855.714" width="108.993" height="24.093" style="fill:rgb(113,90,255);"/>
                    </g>
                </g>
            </g>
        </g>
    </g>
</svg>
